{
  "asset": {
    "copyright": "",
    "generator": "SharpGLTF 1.0.0-alpha0029",
    "version": "2.0"
  },
  "extensionsUsed": [
    "KHR_materials_unlit"
  ],
  "accessors": [
    {
      "bufferView": 0,
      "componentType": 5123,
      "count": 4902,
      "type": "SCALAR"
    },
    {
      "name": "POSITION",
      "bufferView": 1,
      "componentType": 5126,
      "count": 1045,
      "max": [
        112.46583557128906,
        397.7801818847656,
        122.09138488769531
      ],
      "min": [
        -105.7472915649414,
        -0.7096765041351318,
        -100.47297668457031
      ],
      "type": "VEC3"
    },
    {
      "name": "JOINTS_0",
      "bufferView": 2,
      "componentType": 5121,
      "count": 1045,
      "type": "VEC4"
    },
    {
      "name": "WEIGHTS_0",
      "bufferView": 3,
      "componentType": 5126,
      "count": 1045,
      "max": [
        1,
        0.49997732043266296,
        0.10691787302494049,
        0
      ],
      "min": [
        0.4998197853565216,
        0,
        0,
        0
      ],
      "type": "VEC4"
    },
    {
      "name": "NORMAL",
      "bufferView": 4,
      "componentType": 5126,
      "count": 1045,
      "max": [
        0.9993488192558289,
        0.9999980330467224,
        0.9983225464820862
      ],
      "min": [
        -0.9974471926689148,
        -0.9999980330467224,
        -0.9933152198791504
      ],
      "type": "VEC3"
    },
    {
      "name": "TEXCOORD_0",
      "bufferView": 5,
      "componentType": 5126,
      "count": 1045,
      "max": [
        0.996999979019165,
        0.9929999709129333
      ],
      "min": [
        0.0017999999690800905,
        0.00279998779296875
      ],
      "type": "VEC2"
    },
    {
      "name": "Bind Matrices",
      "bufferView": 6,
      "componentType": 5126,
      "count": 3,
      "max": [
        0,
        0.7071068286895752,
        -0.7071044445037842,
        0,
        0.0018366350559517741,
        0.9999980926513672,
        0.0018366350559517741,
        0,
        0.7071044445037842,
        0.7071044445037842,
        0.7071044445037842,
        0,
        75.53097534179688,
        0,
        8.540974617004395,
        1
      ],
      "min": [
        -0.7071068286895752,
        0.0018366350559517741,
        -0.7071068286895752,
        0,
        -0.9999967217445374,
        0.0018366350559517741,
        0.0007607566076330841,
        0,
        0.0025973941665142775,
        -0.0007607566076330841,
        -0.7071088552474976,
        0,
        -2.3079161643981934,
        -329.23309326171875,
        0,
        1
      ],
      "type": "MAT4"
    },
    {
      "name": "Animation.Input",
      "bufferView": 7,
      "componentType": 5126,
      "count": 10,
      "max": [
        0.3461538553237915
      ],
      "min": [
        0
      ],
      "type": "SCALAR"
    },
    {
      "name": "Animation.Output",
      "bufferView": 8,
      "componentType": 5126,
      "count": 10,
      "max": [
        -0.7004053592681885,
        0.7137452363967896,
        4.370284689332039E-17,
        -4.2886042434371225E-17
      ],
      "min": [
        -0.7004053592681885,
        0.7137452363967896,
        4.370284689332039E-17,
        -4.2886042434371225E-17
      ],
      "type": "VEC4"
    },
    {
      "name": "Animation.Input",
      "bufferView": 9,
      "componentType": 5126,
      "count": 10,
      "max": [
        0.3461538553237915
      ],
      "min": [
        0
      ],
      "type": "SCALAR"
    },
    {
      "name": "Animation.Output",
      "bufferView": 10,
      "componentType": 5126,
      "count": 10,
      "max": [
        -74.71971130371094,
        -8.30446856300935E-15,
        -1.030449538637037E-30
      ],
      "min": [
        -74.71971130371094,
        -8.30446856300935E-15,
        -1.030449538637037E-30
      ],
      "type": "VEC3"
    },
    {
      "name": "Animation.Input",
      "bufferView": 11,
      "componentType": 5126,
      "count": 10,
      "max": [
        0.3461538553237915
      ],
      "min": [
        0
      ],
      "type": "SCALAR"
    },
    {
      "name": "Animation.Output",
      "bufferView": 12,
      "componentType": 5126,
      "count": 10,
      "max": [
        1,
        1,
        1
      ],
      "min": [
        1,
        1,
        1
      ],
      "type": "VEC3"
    },
    {
      "name": "Animation.Input",
      "bufferView": 13,
      "componentType": 5126,
      "count": 10,
      "max": [
        0.3461538553237915
      ],
      "min": [
        0
      ],
      "type": "SCALAR"
    },
    {
      "name": "Animation.Output",
      "bufferView": 14,
      "componentType": 5126,
      "count": 10,
      "max": [
        -4.370284689332039E-17,
        4.2886042434371225E-17,
        -0.7004053592681885,
        0.7137452363967896
      ],
      "min": [
        -4.370284689332039E-17,
        4.2886042434371225E-17,
        -0.7004053592681885,
        0.7137452363967896
      ],
      "type": "VEC4"
    },
    {
      "name": "Animation.Input",
      "bufferView": 15,
      "componentType": 5126,
      "count": 10,
      "max": [
        0.3461538553237915
      ],
      "min": [
        0
      ],
      "type": "SCALAR"
    },
    {
      "name": "Animation.Output",
      "bufferView": 16,
      "componentType": 5126,
      "count": 10,
      "max": [
        1.2780596017837524,
        112.61082458496094,
        -0
      ],
      "min": [
        1.2780596017837524,
        112.61082458496094,
        -0
      ],
      "type": "VEC3"
    },
    {
      "name": "Animation.Input",
      "bufferView": 17,
      "componentType": 5126,
      "count": 10,
      "max": [
        0.3461538553237915
      ],
      "min": [
        0
      ],
      "type": "SCALAR"
    },
    {
      "name": "Animation.Output",
      "bufferView": 18,
      "componentType": 5126,
      "count": 10,
      "max": [
        1,
        1,
        1
      ],
      "min": [
        1,
        1,
        1
      ],
      "type": "VEC3"
    },
    {
      "name": "Animation.Input",
      "bufferView": 19,
      "componentType": 5126,
      "count": 60,
      "max": [
        1.9666668176651
      ],
      "min": [
        0
      ],
      "type": "SCALAR"
    },
    {
      "name": "Animation.Output",
      "bufferView": 20,
      "componentType": 5126,
      "count": 60,
      "max": [
        0.49935027956962585,
        -0.5006489157676697,
        -0.4993502199649811,
        0.5006489753723145
      ],
      "min": [
        0.4993502199649811,
        -0.5006489753723145,
        -0.49935027956962585,
        0.5006489157676697
      ],
      "type": "VEC4"
    },
    {
      "name": "Animation.Input",
      "bufferView": 21,
      "componentType": 5126,
      "count": 60,
      "max": [
        1.9666668176651
      ],
      "min": [
        0
      ],
      "type": "SCALAR"
    },
    {
      "name": "Animation.Output",
      "bufferView": 22,
      "componentType": 5126,
      "count": 60,
      "max": [
        0,
        0,
        -0
      ],
      "min": [
        0,
        -3.936593532562256,
        -0
      ],
      "type": "VEC3"
    },
    {
      "name": "Animation.Input",
      "bufferView": 23,
      "componentType": 5126,
      "count": 60,
      "max": [
        1.9666668176651
      ],
      "min": [
        0
      ],
      "type": "SCALAR"
    },
    {
      "name": "Animation.Output",
      "bufferView": 24,
      "componentType": 5126,
      "count": 60,
      "max": [
        1,
        1,
        1
      ],
      "min": [
        1,
        1,
        1
      ],
      "type": "VEC3"
    },
    {
      "name": "Animation.Input",
      "bufferView": 25,
      "componentType": 5126,
      "count": 60,
      "max": [
        1.9666668176651
      ],
      "min": [
        0
      ],
      "type": "SCALAR"
    },
    {
      "name": "Animation.Output",
      "bufferView": 26,
      "componentType": 5126,
      "count": 60,
      "max": [
        0.49935027956962585,
        -0.5006489157676697,
        0.49935027956962585,
        0.5006489753723145
      ],
      "min": [
        0.4993502199649811,
        -0.5006489753723145,
        0.4993502199649811,
        0.5006489157676697
      ],
      "type": "VEC4"
    },
    {
      "name": "Animation.Input",
      "bufferView": 27,
      "componentType": 5126,
      "count": 60,
      "max": [
        1.9666668176651
      ],
      "min": [
        0
      ],
      "type": "SCALAR"
    },
    {
      "name": "Animation.Output",
      "bufferView": 28,
      "componentType": 5126,
      "count": 60,
      "max": [
        -286.3690490722656,
        0.25973936915397644,
        1.6110515834799957E-14
      ],
      "min": [
        -297.047119140625,
        0.25973936915397644,
        1.6110515834799957E-14
      ],
      "type": "VEC3"
    },
    {
      "name": "Animation.Input",
      "bufferView": 29,
      "componentType": 5126,
      "count": 60,
      "max": [
        1.9666668176651
      ],
      "min": [
        0
      ],
      "type": "SCALAR"
    },
    {
      "name": "Animation.Output",
      "bufferView": 30,
      "componentType": 5126,
      "count": 60,
      "max": [
        1,
        1,
        1
      ],
      "min": [
        1,
        1,
        1
      ],
      "type": "VEC3"
    },
    {
      "name": "Animation.Input",
      "bufferView": 31,
      "componentType": 5126,
      "count": 60,
      "max": [
        1.9666668176651
      ],
      "min": [
        0
      ],
      "type": "SCALAR"
    },
    {
      "name": "Animation.Output",
      "bufferView": 32,
      "componentType": 5126,
      "count": 60,
      "max": [
        0.2697494328022003,
        -0.27144622802734375,
        -0.6529294848442078,
        0.653632402420044
      ],
      "min": [
        0.26974940299987793,
        -0.27144625782966614,
        -0.6529295444488525,
        0.6536323428153992
      ],
      "type": "VEC4"
    },
    {
      "name": "Animation.Input",
      "bufferView": 33,
      "componentType": 5126,
      "count": 60,
      "max": [
        1.9666668176651
      ],
      "min": [
        0
      ],
      "type": "SCALAR"
    },
    {
      "name": "Animation.Output",
      "bufferView": 34,
      "componentType": 5126,
      "count": 60,
      "max": [
        0,
        0,
        -0
      ],
      "min": [
        0,
        0,
        -0
      ],
      "type": "VEC3"
    },
    {
      "name": "Animation.Input",
      "bufferView": 35,
      "componentType": 5126,
      "count": 60,
      "max": [
        1.9666668176651
      ],
      "min": [
        0
      ],
      "type": "SCALAR"
    },
    {
      "name": "Animation.Output",
      "bufferView": 36,
      "componentType": 5126,
      "count": 60,
      "max": [
        1,
        1,
        1
      ],
      "min": [
        1,
        1,
        1
      ],
      "type": "VEC3"
    },
    {
      "name": "Animation.Input",
      "bufferView": 37,
      "componentType": 5126,
      "count": 60,
      "max": [
        1.9666668176651
      ],
      "min": [
        0
      ],
      "type": "SCALAR"
    },
    {
      "name": "Animation.Output",
      "bufferView": 38,
      "componentType": 5126,
      "count": 60,
      "max": [
        0.49935027956962585,
        -0.5006489157676697,
        0.49935027956962585,
        0.5006489753723145
      ],
      "min": [
        0.4993502199649811,
        -0.5006489753723145,
        0.4993502199649811,
        0.5006489157676697
      ],
      "type": "VEC4"
    },
    {
      "name": "Animation.Input",
      "bufferView": 39,
      "componentType": 5126,
      "count": 60,
      "max": [
        1.9666668176651
      ],
      "min": [
        0
      ],
      "type": "SCALAR"
    },
    {
      "name": "Animation.Output",
      "bufferView": 40,
      "componentType": 5126,
      "count": 60,
      "max": [
        -329.20977783203125,
        9.39609146118164,
        -75.53096771240234
      ],
      "min": [
        -329.20977783203125,
        9.39609146118164,
        -75.53096771240234
      ],
      "type": "VEC3"
    },
    {
      "name": "Animation.Input",
      "bufferView": 41,
      "componentType": 5126,
      "count": 60,
      "max": [
        1.9666668176651
      ],
      "min": [
        0
      ],
      "type": "SCALAR"
    },
    {
      "name": "Animation.Output",
      "bufferView": 42,
      "componentType": 5126,
      "count": 60,
      "max": [
        1,
        1,
        1
      ],
      "min": [
        1,
        1,
        1
      ],
      "type": "VEC3"
    },
    {
      "name": "Animation.Input",
      "bufferView": 43,
      "componentType": 5126,
      "count": 60,
      "max": [
        1.9666668176651
      ],
      "min": [
        0
      ],
      "type": "SCALAR"
    },
    {
      "name": "Animation.Output",
      "bufferView": 44,
      "componentType": 5126,
      "count": 60,
      "max": [
        0.49935027956962585,
        -0.5006489157676697,
        0.49935027956962585,
        0.5006489753723145
      ],
      "min": [
        0.4993502199649811,
        -0.5006489753723145,
        0.4993502199649811,
        0.5006489157676697
      ],
      "type": "VEC4"
    },
    {
      "name": "Animation.Input",
      "bufferView": 45,
      "componentType": 5126,
      "count": 60,
      "max": [
        1.9666668176651
      ],
      "min": [
        0
      ],
      "type": "SCALAR"
    },
    {
      "name": "Animation.Output",
      "bufferView": 46,
      "componentType": 5126,
      "count": 60,
      "max": [
        -182.12896728515625,
        1.3124643564224243,
        2.3079161643981934
      ],
      "min": [
        -182.12896728515625,
        1.3124643564224243,
        2.3079161643981934
      ],
      "type": "VEC3"
    },
    {
      "name": "Animation.Input",
      "bufferView": 47,
      "componentType": 5126,
      "count": 60,
      "max": [
        1.9666668176651
      ],
      "min": [
        0
      ],
      "type": "SCALAR"
    },
    {
      "name": "Animation.Output",
      "bufferView": 48,
      "componentType": 5126,
      "count": 60,
      "max": [
        1,
        1,
        1
      ],
      "min": [
        1,
        1,
        1
      ],
      "type": "VEC3"
    }
  ],
  "animations": [
    {
      "name": "OrderTurretNormal",
      "channels": [
        {
          "sampler": 0,
          "target": {
            "node": 2,
            "path": "rotation"
          }
        },
        {
          "sampler": 1,
          "target": {
            "node": 2,
            "path": "translation"
          }
        },
        {
          "sampler": 2,
          "target": {
            "node": 2,
            "path": "scale"
          }
        },
        {
          "sampler": 3,
          "target": {
            "node": 3,
            "path": "rotation"
          }
        },
        {
          "sampler": 4,
          "target": {
            "node": 3,
            "path": "translation"
          }
        },
        {
          "sampler": 5,
          "target": {
            "node": 3,
            "path": "scale"
          }
        }
      ],
      "samplers": [
        {
          "input": 7,
          "output": 8
        },
        {
          "input": 9,
          "output": 10
        },
        {
          "input": 11,
          "output": 12
        },
        {
          "input": 13,
          "output": 14
        },
        {
          "input": 15,
          "output": 16
        },
        {
          "input": 17,
          "output": 18
        }
      ]
    },
    {
      "name": "Turret_Idle",
      "channels": [
        {
          "sampler": 0,
          "target": {
            "node": 1,
            "path": "rotation"
          }
        },
        {
          "sampler": 1,
          "target": {
            "node": 1,
            "path": "translation"
          }
        },
        {
          "sampler": 2,
          "target": {
            "node": 1,
            "path": "scale"
          }
        },
        {
          "sampler": 3,
          "target": {
            "node": 2,
            "path": "rotation"
          }
        },
        {
          "sampler": 4,
          "target": {
            "node": 2,
            "path": "translation"
          }
        },
        {
          "sampler": 5,
          "target": {
            "node": 2,
            "path": "scale"
          }
        }
      ],
      "samplers": [
        {
          "input": 19,
          "output": 20
        },
        {
          "input": 21,
          "output": 22
        },
        {
          "input": 23,
          "output": 24
        },
        {
          "input": 25,
          "output": 26
        },
        {
          "input": 27,
          "output": 28
        },
        {
          "input": 29,
          "output": 30
        }
      ]
    },
    {
      "name": "BlueLaneTower_Idle",
      "channels": [
        {
          "sampler": 0,
          "target": {
            "node": 1,
            "path": "rotation"
          }
        },
        {
          "sampler": 1,
          "target": {
            "node": 1,
            "path": "translation"
          }
        },
        {
          "sampler": 2,
          "target": {
            "node": 1,
            "path": "scale"
          }
        },
        {
          "sampler": 3,
          "target": {
            "node": 2,
            "path": "rotation"
          }
        },
        {
          "sampler": 4,
          "target": {
            "node": 2,
            "path": "translation"
          }
        },
        {
          "sampler": 5,
          "target": {
            "node": 2,
            "path": "scale"
          }
        },
        {
          "sampler": 6,
          "target": {
            "node": 3,
            "path": "rotation"
          }
        },
        {
          "sampler": 7,
          "target": {
            "node": 3,
            "path": "translation"
          }
        },
        {
          "sampler": 8,
          "target": {
            "node": 3,
            "path": "scale"
          }
        }
      ],
      "samplers": [
        {
          "input": 31,
          "output": 32
        },
        {
          "input": 33,
          "output": 34
        },
        {
          "input": 35,
          "output": 36
        },
        {
          "input": 37,
          "output": 38
        },
        {
          "input": 39,
          "output": 40
        },
        {
          "input": 41,
          "output": 42
        },
        {
          "input": 43,
          "output": 44
        },
        {
          "input": 45,
          "output": 46
        },
        {
          "input": 47,
          "output": 48
        }
      ]
    }
  ],
  "bufferViews": [
    {
      "buffer": 0,
      "byteLength": 9804,
      "byteOffset": 41800,
      "target": 34963
    },
    {
      "buffer": 0,
      "byteLength": 12540,
      "byteOffset": 16720,
      "byteStride": 12,
      "target": 34962
    },
    {
      "buffer": 0,
      "byteLength": 4180,
      "byteOffset": 59964,
      "byteStride": 4,
      "target": 34962
    },
    {
      "buffer": 0,
      "byteLength": 16720,
      "byteStride": 16,
      "target": 34962
    },
    {
      "buffer": 0,
      "byteLength": 12540,
      "byteOffset": 29260,
      "byteStride": 12,
      "target": 34962
    },
    {
      "buffer": 0,
      "byteLength": 8360,
      "byteOffset": 51604,
      "byteStride": 8,
      "target": 34962
    },
    {
      "buffer": 0,
      "byteLength": 192,
      "byteOffset": 79744
    },
    {
      "buffer": 0,
      "byteLength": 40,
      "byteOffset": 80736
    },
    {
      "buffer": 0,
      "byteLength": 160,
      "byteOffset": 79936
    },
    {
      "buffer": 0,
      "byteLength": 40,
      "byteOffset": 80776
    },
    {
      "buffer": 0,
      "byteLength": 120,
      "byteOffset": 80256
    },
    {
      "buffer": 0,
      "byteLength": 40,
      "byteOffset": 80816
    },
    {
      "buffer": 0,
      "byteLength": 120,
      "byteOffset": 80376
    },
    {
      "buffer": 0,
      "byteLength": 40,
      "byteOffset": 80856
    },
    {
      "buffer": 0,
      "byteLength": 160,
      "byteOffset": 80096
    },
    {
      "buffer": 0,
      "byteLength": 40,
      "byteOffset": 80896
    },
    {
      "buffer": 0,
      "byteLength": 120,
      "byteOffset": 80496
    },
    {
      "buffer": 0,
      "byteLength": 40,
      "byteOffset": 80936
    },
    {
      "buffer": 0,
      "byteLength": 120,
      "byteOffset": 80616
    },
    {
      "buffer": 0,
      "byteLength": 240,
      "byteOffset": 76144
    },
    {
      "buffer": 0,
      "byteLength": 960,
      "byteOffset": 64144
    },
    {
      "buffer": 0,
      "byteLength": 240,
      "byteOffset": 76384
    },
    {
      "buffer": 0,
      "byteLength": 720,
      "byteOffset": 68944
    },
    {
      "buffer": 0,
      "byteLength": 240,
      "byteOffset": 76624
    },
    {
      "buffer": 0,
      "byteLength": 720,
      "byteOffset": 69664
    },
    {
      "buffer": 0,
      "byteLength": 240,
      "byteOffset": 76864
    },
    {
      "buffer": 0,
      "byteLength": 960,
      "byteOffset": 65104
    },
    {
      "buffer": 0,
      "byteLength": 240,
      "byteOffset": 77104
    },
    {
      "buffer": 0,
      "byteLength": 720,
      "byteOffset": 70384
    },
    {
      "buffer": 0,
      "byteLength": 240,
      "byteOffset": 77344
    },
    {
      "buffer": 0,
      "byteLength": 720,
      "byteOffset": 71104
    },
    {
      "buffer": 0,
      "byteLength": 240,
      "byteOffset": 77584
    },
    {
      "buffer": 0,
      "byteLength": 960,
      "byteOffset": 66064
    },
    {
      "buffer": 0,
      "byteLength": 240,
      "byteOffset": 77824
    },
    {
      "buffer": 0,
      "byteLength": 720,
      "byteOffset": 71824
    },
    {
      "buffer": 0,
      "byteLength": 240,
      "byteOffset": 78064
    },
    {
      "buffer": 0,
      "byteLength": 720,
      "byteOffset": 72544
    },
    {
      "buffer": 0,
      "byteLength": 240,
      "byteOffset": 78304
    },
    {
      "buffer": 0,
      "byteLength": 960,
      "byteOffset": 67024
    },
    {
      "buffer": 0,
      "byteLength": 240,
      "byteOffset": 78544
    },
    {
      "buffer": 0,
      "byteLength": 720,
      "byteOffset": 73264
    },
    {
      "buffer": 0,
      "byteLength": 240,
      "byteOffset": 78784
    },
    {
      "buffer": 0,
      "byteLength": 720,
      "byteOffset": 73984
    },
    {
      "buffer": 0,
      "byteLength": 240,
      "byteOffset": 79024
    },
    {
      "buffer": 0,
      "byteLength": 960,
      "byteOffset": 67984
    },
    {
      "buffer": 0,
      "byteLength": 240,
      "byteOffset": 79264
    },
    {
      "buffer": 0,
      "byteLength": 720,
      "byteOffset": 74704
    },
    {
      "buffer": 0,
      "byteLength": 240,
      "byteOffset": 79504
    },
    {
      "buffer": 0,
      "byteLength": 720,
      "byteOffset": 75424
    }
  ],
  "buffers": [
    {
      "byteLength": 80976,
      "uri": "BlueLaneTower.bin"
    }
  ],
  "materials": [
    {
      "extensions": {
        "KHR_materials_unlit": {}
      },
      "name": "Base",
      "doubleSided": true,
      "pbrMetallicRoughness": {}
    }
  ],
  "meshes": [
    {
      "primitives": [
        {
          "attributes": {
            "POSITION": 1,
            "JOINTS_0": 2,
            "WEIGHTS_0": 3,
            "NORMAL": 4,
            "TEXCOORD_0": 5
          },
          "indices": 0,
          "material": 0
        }
      ]
    }
  ],
  "nodes": [
    {
      "name": "skinned_mesh",
      "children": [
        1
      ],
      "mesh": 0,
      "skin": 0
    },
    {
      "name": "root",
      "children": [
        2,
        3
      ],
      "rotation": [
        0.2697494,
        -0.27144626,
        -0.65292954,
        0.65363234
      ],
      "scale": [
        0.99999994,
        0.99999994,
        0.99999994
      ]
    },
    {
      "name": "joint2",
      "rotation": [
        0.49935025,
        -0.500649,
        0.49935025,
        0.5006489
      ],
      "scale": [
        1,
        1.0000001,
        1
      ],
      "translation": [
        -329.2098,
        9.396091,
        -75.530975
      ]
    },
    {
      "name": "joint1",
      "rotation": [
        0.49935025,
        -0.500649,
        0.49935025,
        0.5006489
      ],
      "scale": [
        1,
        1.0000001,
        1
      ],
      "translation": [
        -182.12898,
        1.3124642,
        2.3079162
      ]
    }
  ],
  "scene": 0,
  "scenes": [
    {
      "name": "SkinnedMesh",
      "nodes": [
        0
      ]
    }
  ],
  "skins": [
    {
      "inverseBindMatrices": 6,
      "joints": [
        1,
        2,
        3
      ]
    }
  ]
}